<svg xmlns="http://www.w3.org/2000/svg" width="495" height="200" viewBox="0 0 495 200" role="img" aria-labelledby="title">
  <title id="title">Statistiques GitHub</title>
  <style>
    text { font-family: 'Segoe UI', Ubuntu, 'Helvetica Neue', Sans-Serif; }
    .title { font-size: 18px; font-weight: 600; fill: #7aa2f7; }
    .label { font-size: 14px; fill: #a9b1d6; }
    .value { font-size: 14px; font-weight: 700; fill: #c0caf5; }
    .muted { font-size: 12px; fill: #565f89; }
    .big { font-size: 28px; font-weight: 700; fill: #c0caf5; }
  </style>
  <rect x="0.5" y="0.5" width="494" height="199" rx="6" fill="#1a1b27" stroke="#414868"/>
  <text x="25" y="35" class="title">Statistiques GitHub</text>
  <g transform="translate(25, 62)">
    <path transform="translate(0, -12)" fill="#bb9af7" d="M11.93 8.5a4.002 4.002 0 0 1-7.86 0H.75a.75.75 0 0 1 0-1.5h3.32a4.002 4.002 0 0 1 7.86 0h3.32a.75.75 0 0 1 0 1.5Zm-1.43-.75a2.5 2.5 0 1 0-5 0 2.5 2.5 0 0 0 5 0Z"/>
    <text x="26" y="0" class="label">Commits publics (12 mois)</text>
    <text x="300" y="0" class="value" text-anchor="end">163</text>
  </g>
  <g transform="translate(25, 84)">
    <path transform="translate(0, -12)" fill="#bb9af7" d="M4 4a4 4 0 0 1 8 0v2h.25c.966 0 1.75.784 1.75 1.75v5.5A1.75 1.75 0 0 1 12.25 15h-8.5A1.75 1.75 0 0 1 2 13.25v-5.5C2 6.784 2.784 6 3.75 6H4Zm8.25 3.5h-8.5a.25.25 0 0 0-.25.25v5.5c0 .138.112.25.25.25h8.5a.25.25 0 0 0 .25-.25v-5.5a.25.25 0 0 0-.25-.25ZM10.5 6V4a2.5 2.5 0 1 0-5 0v2Z"/>
    <text x="26" y="0" class="label">Contributions privées (12 mois)</text>
    <text x="300" y="0" class="value" text-anchor="end">88</text>
  </g>
  <g transform="translate(25, 106)">
    <path transform="translate(0, -12)" fill="#bb9af7" d="M1.5 3.25a2.25 2.25 0 1 1 3 2.122v5.256a2.251 2.251 0 1 1-1.5 0V5.372A2.25 2.25 0 0 1 1.5 3.25Zm5.677-.177L9.573.677A.25.25 0 0 1 10 .854V2.5h1A2.5 2.5 0 0 1 13.5 5v5.628a2.251 2.251 0 1 1-1.5 0V5a1 1 0 0 0-1-1h-1v1.646a.25.25 0 0 1-.427.177L7.177 3.427a.25.25 0 0 1 0-.354ZM3.75 2.5a.75.75 0 1 0 0 1.5.75.75 0 0 0 0-1.5Zm0 9.5a.75.75 0 1 0 0 1.5.75.75 0 0 0 0-1.5Zm8.25.75a.75.75 0 1 0 1.5 0 .75.75 0 0 0-1.5 0Z"/>
    <text x="26" y="0" class="label">Pull requests</text>
    <text x="300" y="0" class="value" text-anchor="end">37</text>
  </g>
  <g transform="translate(25, 128)">
    <path transform="translate(0, -12)" fill="#bb9af7" d="M8 9.5a1.5 1.5 0 1 0 0-3 1.5 1.5 0 0 0 0 3ZM8 0a8 8 0 1 1 0 16A8 8 0 0 1 8 0ZM1.5 8a6.5 6.5 0 1 0 13 0 6.5 6.5 0 0 0-13 0Z"/>
    <text x="26" y="0" class="label">Issues</text>
    <text x="300" y="0" class="value" text-anchor="end">13</text>
  </g>
  <g transform="translate(25, 150)">
    <path transform="translate(0, -12)" fill="#bb9af7" d="M2 2.5A2.5 2.5 0 0 1 4.5 0h8.75a.75.75 0 0 1 .75.75v12.5a.75.75 0 0 1-.75.75h-2.5a.75.75 0 0 1 0-1.5h1.75v-2h-8a1 1 0 0 0-.714 1.7.75.75 0 1 1-1.072 1.05A2.495 2.495 0 0 1 2 11.5Zm10.5-1h-8a1 1 0 0 0-1 1v6.708A2.486 2.486 0 0 1 4.5 9h8ZM5 12.25a.25.25 0 0 1 .25-.25h3.5a.25.25 0 0 1 .25.25v3.25a.25.25 0 0 1-.4.2l-1.45-1.087a.249.249 0 0 0-.3 0L5.4 15.7a.25.25 0 0 1-.4-.2Z"/>
    <text x="26" y="0" class="label">Dépôts contribués (12 mois)</text>
    <text x="300" y="0" class="value" text-anchor="end">8</text>
  </g>
  <g transform="translate(25, 172)">
    <path transform="translate(0, -12)" fill="#bb9af7" d="M8 .25a.75.75 0 0 1 .673.418l1.882 3.815 4.21.612a.75.75 0 0 1 .416 1.279l-3.046 2.97.719 4.192a.751.751 0 0 1-1.088.791L8 12.347l-3.766 1.98a.75.75 0 0 1-1.088-.79l.72-4.194L.818 6.374a.75.75 0 0 1 .416-1.28l4.21-.611L7.327.668A.75.75 0 0 1 8 .25Zm0 2.445L6.615 5.5a.75.75 0 0 1-.564.41l-3.097.45 2.24 2.184a.75.75 0 0 1 .216.664l-.528 3.084 2.769-1.456a.75.75 0 0 1 .698 0l2.77 1.456-.53-3.084a.75.75 0 0 1 .216-.664l2.24-2.183-3.096-.45a.75.75 0 0 1-.564-.41L8 2.694Z"/>
    <text x="26" y="0" class="label">Étoiles reçues</text>
    <text x="300" y="0" class="value" text-anchor="end">1</text>
  </g>
  <g transform="translate(400, 108)">
    <circle r="50" fill="none" stroke="#7aa2f7" stroke-width="5"/>
    <text y="4" class="big" text-anchor="middle">285</text>
    <text y="24" class="muted" text-anchor="middle">contributions</text>
    <text y="76" class="muted" text-anchor="middle">sur 12 mois</text>
  </g>
</svg>
